# xmcd
#
# Track frame offsets:
# 150
# 19377
# 36504
# 54266
# 80372
# 97944
# 119709
# 139476
# 160902
# 182154
# 203208
# 220900
# 243949
# 256371
# 278335
# 303302
#
# Disc length: 4240 seconds
#
#
# Revision: 1
# Processed by: cddbd v1.5.1PL2 Copyright (c) Steve Scherf et al.
# Submitted via: FreeRIP 2.945 
#
DISCID=e3108e10
DTITLE=Joe Cocker-Best Hits - Joe Cocker-Best Hits
DYEAR=1900
DGENRE=
TTITLE0=What Becomes of The Broken Hearted
TTITLE1=You Can Live Your Hat On
TTITLE2=Summer In The City
TTITLE3=Could You Be Loved
TTITLE4=Dont't Let Me Be Misunderstood
TTITLE5=Tonight
TTITLE6=Shelter Me
TTITLE7=N'oubliez Jamais
TTITLE8=Have ALittle Faith in Me
TTITLE9=Now That The Magic Has Gone
TTITLE10=Up WhereWe Belong
TTITLE11=With A Little Help From My Friends
TTITLE12=You Are So Beautiful
TTITLE13=The Simple Things
TTITLE14=Don't Let The Sun Go Down On Me
TTITLE15=Delta Lady
EXTD=
EXTT0=
EXTT1=
EXTT2=
EXTT3=
EXTT4=
EXTT5=
EXTT6=
EXTT7=
EXTT8=
EXTT9=
EXTT10=
EXTT11=
EXTT12=
EXTT13=
EXTT14=
EXTT15=
PLAYORDER=
